<?xml version="1.0" encoding="utf-8"?>
<!-- Generator: Adobe Illustrator 26.5.0, SVG Export Plug-In . SVG Version: 6.00 Build 0)  -->
<svg version="1.1" id="Layer_1" xmlns="http://www.w3.org/2000/svg" xmlns:xlink="http://www.w3.org/1999/xlink" x="0px" y="0px"
	 viewBox="0 0 60 60" style="enable-background:new 0 0 60 60;" xml:space="preserve">
<path fill="#73777A" d="M28.6,41.5c0-1.9-1.5-3.5-3.4-3.5s-3.5,1.5-3.5,3.4s1.5,3.5,3.4,3.5l0,0C27,45,28.6,43.4,28.6,41.5L28.6,41.5 M31.4,35.9
	v11.2h-2.9v-1c-1,0.8-2.3,1.3-3.7,1.3c-3.4,0-6.1-2.6-6.1-5.9c0-3.3,2.7-5.9,6.1-5.9c1.3,0,2.6,0.5,3.7,1.3v-1
	C28.6,35.9,31.4,35.9,31.4,35.9z M41.1,44.6h-2.2c-0.7,0-1.1-0.3-1.1-0.9v-5.3h3.3v-2.6h-3.3v-3.2h-2.9v3.2h-2.2v2.6h2.2v6
	c0,1.5,1.1,2.7,3,2.7H41C41.1,47.1,41.1,44.6,41.1,44.6z M47.6,47.4c3.3,0,5.2-1.6,5.2-3.7c0-1.5-1.1-2.7-3.4-3.2L47,40
	c-1.4-0.3-1.9-0.5-1.9-1c0-0.7,0.7-1.1,2-1.1c1.4,0,2.4,0.4,2.7,1.6h2.9c-0.2-2.3-1.9-3.9-5.4-3.9c-3,0-5.1,1.2-5.1,3.6
	c0,1.6,1.2,2.7,3.7,3.2l2.8,0.6c1.1,0.2,1.4,0.5,1.4,0.9c0,0.7-0.8,1.1-2.2,1.1c-1.7,0-2.6-0.4-3-1.6H42
	C42.3,45.8,44,47.4,47.6,47.4 M7.1,31.9H18v2.6h-8v3.7h7.7v2.5H10v3.8h8v2.6H7.1V31.9z M52.6,18.7v-2h-0.8c-1.2,0-2.2,0.6-2.7,1.5
	v-1.4h-2.2v11.1h2.2v-6.3c0-1.7,1.1-2.8,2.5-2.8C51.7,18.7,52.6,18.7,52.6,18.7z M36.5,21.3c0.4-1.7,1.8-2.8,3.5-2.8
	s3.1,1.1,3.4,2.8H36.5z M40,16.5c-3.2,0-5.8,2.5-5.8,5.7v0.1c0,3.3,2.6,5.8,6,5.8c2.1,0,3.7-0.9,4.9-2.4l-1.6-1.2
	c-0.8,1.1-1.9,1.6-3.3,1.6c-1.9,0-3.4-1.3-3.7-3.2h9.2v-0.7C45.7,19,43.3,16.5,40,16.5 M27.2,26.2c-2.1,0-3.8-1.8-3.8-3.9
	s1.8-3.8,3.9-3.8s3.8,1.7,3.8,3.8S29.4,26.2,27.2,26.2L27.2,26.2 M21.1,27.8h2.2v-1.4c1.1,1.1,2.5,1.7,4,1.7c3.3,0,5.9-2.6,5.9-5.8
	s-2.6-5.8-5.9-5.8c-1.5,0-2.9,0.6-4,1.7v-5.5h-2.2V27.8z M13.3,26c2.2,0,3.8-1.6,3.8-4v-9.4h2.3v15.2h-2.3v-1.4
	c-1,1.1-2.5,1.7-4.1,1.7c-3.3,0-5.9-2.4-5.9-6v-9.5h2.3V22C9.5,24.5,11.1,26,13.3,26"/>
</svg>
