<?xml version="1.0" encoding="UTF-8"?><svg version="1.1" width="1091px" height="513px" viewBox="0 0 1091.0 513.0" xmlns="http://www.w3.org/2000/svg" xmlns:xlink="http://www.w3.org/1999/xlink"><defs><clipPath id="i0"><path d="M1400,0 L1400,5685 L0,5685 L0,0 L1400,0 Z"></path></clipPath><clipPath id="i1"><path d="M750,0 L750,187.5 L375,375 L375,187.5 L750,0 Z M375,0 L375,187.5 L0,375 L0,187.5 L375,0 Z"></path></clipPath></defs><g transform="translate(-523.0 -433.0)"><g clip-path="url(#i0)"><g transform="translate(0.0 74.0)"><g transform="translate(523.0 359.0)"><g transform="translate(341.0 138.0)"><g clip-path="url(#i1)"><polygon points="0,0 536,0 536,375 0,375 0,0" stroke="none" fill="#F2F6F6"></polygon></g></g><path d="M1026,0 L513,256.5 L513,513 L1026,256.5 L1026,0 Z M513,0 L0,256.5 L0,513 L513,256.5 L513,0 Z" stroke="#01F6FF" stroke-width="1" fill="none" stroke-miterlimit="10"></path></g></g></g></g></svg>