<svg xmlns="http://www.w3.org/2000/svg" xml:space="preserve" id="Layer_1" x="0" y="0" version="1.1" viewBox="0 0 1400 454"><style>.st7{fill:none;stroke:#6246FB;stroke-width:2}</style><path fill="none" stroke="#6246FB" stroke-width="2" d="m716.6 454 324.2-165.1.8-288.9" opacity=".5"/><path fill="none" stroke="#6246FB" stroke-width="2" d="m677 454 314.3-160.1.9-293.9" opacity=".4"/><path fill="none" stroke="#6246FB" stroke-width="2" d="m637.3 454 304.5-155.1.9-298.9" opacity=".2"/><path fill="none" stroke="#6246FB" stroke-width="2" d="m597.6 454 294.7-150.1 1-303.9" opacity=".1"/><path fill="none" stroke="#6246FB" stroke-width="2" d="m558 454 284.8-145.1 1-308.9" opacity=".05"/><path fill="none" stroke="#6246FB" stroke-width="2" d="m756.3 454 333.9-170.1.9-283.9" opacity=".6"/><path fill="none" stroke="#6246FB" stroke-width="2" d="m795.9 454 343.8-175.1.9-278.9" opacity=".7"/><path d="m835.6 454 353.6-180.1L1190 0" class="st7"/><path d="m875.3 454 363.4-185.1.8-268.9" class="st7"/><path d="m914.9 454 373.2-190.1.8-263.9" class="st7"/><path d="m954.6 454 383-195.1.8-258.9" class="st7"/></svg>