<svg xmlns="http://www.w3.org/2000/svg" xmlns:xlink="http://www.w3.org/1999/xlink" viewBox="0 0 1400 724"><defs><linearGradient id="c" x1="57.96%" x2="57.96%" y1="33.795%" y2="98.33%"><stop offset="0%" stop-color="#FFF" stop-opacity="0"/><stop offset="100%" stop-color="#FFF"/></linearGradient><linearGradient id="d" x1="20.467%" x2="105.948%" y1="45.169%" y2="65.42%"><stop offset="0%" stop-color="#FFF" stop-opacity="0"/><stop offset="100%" stop-color="#E7EEEE"/></linearGradient><path id="a" d="M0 0h1400v724H0z"/></defs><g fill="none" fill-rule="evenodd"><mask id="b" fill="#fff"><use xlink:href="#a"/></mask><use xlink:href="#a" fill="#FFF"/><g stroke="#D8D8D8" stroke-width=".5" mask="url(#b)"><path d="M1130.5-8v762M997 650.5h1355M-226.5 384.5H1547M-98.5 119.5H1675M451.5 733.5 1882 0M967.5 733.5 2353 25M95.5 2v762M613.5 2v762M-38 650.5h1355M-40 454 869.5-11.5M-559 454 350.5-11.5M-32.5 715.5l1396-716"/></g><path fill="url(#c)" d="M0 0h1400v724H0z" mask="url(#b)"/><path fill="url(#d)" d="M0 0h1400v724H0z" mask="url(#b)"/></g></svg>