<svg xmlns="http://www.w3.org/2000/svg" viewBox="0 0 59 59"><g><circle cx="29.5" cy="29.5" r="27" fill="transparent" stroke="currentColor" stroke-width="5" class="st0"/><path fill="currentColor" d="M24.581 27.827c1 0 1.9.4 2.5 1.1s1 1.6 1 2.6c0 1.2-.4 2.1-1.2 2.9s-1.8 1.1-3 1.1-2.2-.4-2.9-1.1-1.2-1.7-1.2-2.8c0-1 .4-2.2 1.2-3.5l5-7.4 2.9 2-4.3 5.1zm10.8 0c1 0 1.9.4 2.6 1.1s1 1.6 1 2.6c0 1.2-.4 2.1-1.2 2.9s-1.8 1.1-3 1.1-2.2-.4-2.9-1.1-1.2-1.7-1.2-2.8c0-1 .4-2.2 1.2-3.5l5-7.4 2.9 2-4.4 5.1z"/></g></svg>