<svg xmlns="http://www.w3.org/2000/svg" viewBox="0 0 3 289">
	<g id="Symbols">
		<g id="_x30_3_x5F_components_x2F_timeline_x2F_desktop" transform="translate(-175.000000, -337.000000)">
			<g id="Timeline-bottom" transform="translate(0.000000, 301.000000)">
				<g id="_x32_015" transform="translate(146.000000, 0.000000)">
					<path id="Line" fill="currentColor" d="M30.5,36.5c-0.6,0-1,0.4-1,1s0.4,1,1,1s1-0.4,1-1S31.1,36.5,30.5,36.5z M30.5,47.5
						c-0.6,0-1,0.4-1,1s0.4,1,1,1s1-0.4,1-1S31.1,47.5,30.5,47.5z M30.5,58.5c-0.6,0-1,0.4-1,1s0.4,1,1,1s1-0.4,1-1
						S31.1,58.5,30.5,58.5z M30.5,69.5c-0.6,0-1,0.4-1,1s0.4,1,1,1s1-0.4,1-1S31.1,69.5,30.5,69.5z M30.5,80.5c-0.6,0-1,0.4-1,1
						s0.4,1,1,1s1-0.4,1-1S31.1,80.5,30.5,80.5z M30.5,91.5c-0.6,0-1,0.4-1,1s0.4,1,1,1s1-0.4,1-1S31.1,91.5,30.5,91.5z M30.5,102.5
						c-0.6,0-1,0.4-1,1s0.4,1,1,1s1-0.4,1-1S31.1,102.5,30.5,102.5z M30.5,113.5c-0.6,0-1,0.4-1,1s0.4,1,1,1s1-0.4,1-1
						S31.1,113.5,30.5,113.5z M30.5,124.5c-0.6,0-1,0.4-1,1s0.4,1,1,1s1-0.4,1-1S31.1,124.5,30.5,124.5z M30.5,135.5
						c-0.6,0-1,0.4-1,1s0.4,1,1,1s1-0.4,1-1S31.1,135.5,30.5,135.5z M30.5,146.5c-0.6,0-1,0.4-1,1s0.4,1,1,1s1-0.4,1-1
						S31.1,146.5,30.5,146.5z M30.5,157.5c-0.6,0-1,0.4-1,1s0.4,1,1,1s1-0.4,1-1S31.1,157.5,30.5,157.5z M30.5,168.5
						c-0.6,0-1,0.4-1,1s0.4,1,1,1s1-0.4,1-1S31.1,168.5,30.5,168.5z M30.5,179.5c-0.6,0-1,0.4-1,1s0.4,1,1,1s1-0.4,1-1
						S31.1,179.5,30.5,179.5z M30.5,190.5c-0.6,0-1,0.4-1,1s0.4,1,1,1s1-0.4,1-1S31.1,190.5,30.5,190.5z M30.5,201.5
						c-0.6,0-1,0.4-1,1s0.4,1,1,1s1-0.4,1-1S31.1,201.5,30.5,201.5z M30.5,212.5c-0.6,0-1,0.4-1,1s0.4,1,1,1s1-0.4,1-1
						S31.1,212.5,30.5,212.5z M30.5,223.5c-0.6,0-1,0.4-1,1s0.4,1,1,1s1-0.4,1-1S31.1,223.5,30.5,223.5z M30.5,234.5
						c-0.6,0-1,0.4-1,1s0.4,1,1,1s1-0.4,1-1S31.1,234.5,30.5,234.5z M30.5,245.5c-0.6,0-1,0.4-1,1s0.4,1,1,1s1-0.4,1-1
						S31.1,245.5,30.5,245.5z M30.5,256.5c-0.6,0-1,0.4-1,1s0.4,1,1,1s1-0.4,1-1S31.1,256.5,30.5,256.5z M30.5,267.5
						c-0.6,0-1,0.4-1,1s0.4,1,1,1s1-0.4,1-1S31.1,267.5,30.5,267.5z M30.5,278.5c-0.6,0-1,0.4-1,1s0.4,1,1,1s1-0.4,1-1
						S31.1,278.5,30.5,278.5z M30.5,289.5c-0.6,0-1,0.4-1,1s0.4,1,1,1s1-0.4,1-1S31.1,289.5,30.5,289.5z M30.5,300.5
						c-0.6,0-1,0.4-1,1s0.4,1,1,1s1-0.4,1-1S31.1,300.5,30.5,300.5z M30.5,311.5c-0.6,0-1,0.4-1,1s0.4,1,1,1s1-0.4,1-1
						S31.1,311.5,30.5,311.5z M30.5,322.5c-0.6,0-1,0.4-1,1s0.4,1,1,1s1-0.4,1-1S31.1,322.5,30.5,322.5z"/>
				</g>
			</g>
		</g>
	</g>
</svg>
