<svg width="12" height="12" xmlns="http://www.w3.org/2000/svg"><path d="M6.13 2.985a3.137 3.137 0 0 0-3.142 3.142A3.137 3.137 0 0 0 6.13 9.269a3.137 3.137 0 0 0 3.142-3.142A3.137 3.137 0 0 0 6.13 2.985Zm0 5.185a2.046 2.046 0 0 1-2.043-2.043c0-1.127.916-2.043 2.043-2.043 1.126 0 2.042.916 2.042 2.043A2.046 2.046 0 0 1 6.13 8.17Zm4.003-5.313a.733.733 0 1 0-1.466 0 .733.733 0 0 0 1.466 0Zm2.08.743c-.046-.981-.27-1.85-.99-2.567-.716-.716-1.585-.94-2.567-.99-1.011-.057-4.044-.057-5.056 0-.978.047-1.848.27-2.567.987-.72.717-.94 1.586-.99 2.568-.057 1.011-.057 4.044 0 5.056.047.981.27 1.85.99 2.567.719.717 1.586.94 2.567.99 1.012.057 4.045.057 5.056 0 .982-.046 1.851-.27 2.568-.99.716-.716.94-1.586.99-2.567.057-1.012.057-4.042 0-5.054Zm-1.306 6.14a2.068 2.068 0 0 1-1.165 1.164c-.807.32-2.72.246-3.612.246-.892 0-2.808.071-3.612-.246a2.068 2.068 0 0 1-1.165-1.165c-.32-.807-.246-2.72-.246-3.612 0-.891-.071-2.808.246-3.612A2.068 2.068 0 0 1 2.518 1.35c.806-.32 2.72-.246 3.612-.246.891 0 2.808-.071 3.612.246.536.213.949.626 1.165 1.165.32.807.246 2.72.246 3.612 0 .891.074 2.808-.246 3.612Z" fill="currentColor" fill-rule="nonzero"/></svg>