<svg xmlns="http://www.w3.org/2000/svg" version="1.1" xml:space="preserve" viewBox="27.84 26.95 137.81 88.83"><path d="m28.083 115.54 0.24506-0.23745 96.619-49.467 0.13624-0.20379 0.13625-0.20379 3e-3 -19.24 3e-3 -19.24h0.3709v38.899l-0.46362 0.37919-12.611 6.4845-83.95 43.067h-0.73358zm6.559-0.048 0.36225-0.28542 96.433-49.37 0.13625-0.204 0.13624-0.204 3e-3 -19.24 3e-3 -19.24h0.3726l-0.0472 19.518-0.0472 19.518-4.6362 2.457-87.346 44.791-4.959 2.5447h-0.77263zm7.1525-0.0493 0.44227-0.33471 96.248-49.271 0.2725-0.4089 3e-3 -19.24 3e-3 -19.24h0.37089v38.899l-0.23181 0.19134-0.23181 0.19134-27.075 13.894-64.165 32.918-5.3482 2.7362h-0.72894zm7.0257-0.19763 0.83452-0.52798 41.911-21.429 53.595-27.454 0.2725-0.40589 3e-3 -19.24 3e-3 -19.24h0.37089v38.899l-0.46362 0.37822-20.214 10.377-71.027 36.438-5.3482 2.7379-0.77165-4e-3 0.83452-0.52798zm6.8616 9e-3 0.83452-0.51617 95.506-48.898 0.13625-0.20607 0.13624-0.20607 3e-3 -19.24 3e-3 -19.24h0.3709v38.899l-0.46362 0.37822-20.214 10.377-71.212 36.53-5.1813 2.6458-0.75303-8e-3 0.83452-0.51618zm6.4907-3.7e-4 0.83452-0.51654 34.679-17.742 60.827-31.159 0.13625-0.20435 0.13624-0.20435 3e-3 -19.24 3e-3 -19.24h0.3709v38.899l-0.46362 0.37954-27.446 14.083-63.98 32.821-5.1813 2.6476-0.75303-8e-3 0.83452-0.51654zm6.1143 0.20988 0.44788-0.3137 34.329-17.586 61.94-31.728 0.13625-0.20401 0.13624-0.20401 3e-3 -19.24 3e-3 -19.24h0.3709v38.899l-0.23181 0.18836-0.23181 0.18836-13.352 6.8574-78.074 40.049-5.2151 2.648h-0.70904l0.44788-0.31371z" stroke-width=".18545"/></svg>