<svg xmlns="http://www.w3.org/2000/svg" viewBox="0.38 1.37 172.76 101.3"><g><g id="g60" transform="translate(-4.0644437,-27.360963)"><path d="M 4.4933797,129.69876 C 4.5546615,129.40595 28.489813,117.07613 74.700941,93.532431 113.26396,73.885297 151.86998,54.215414 160.49208,49.82158 l 15.67657,-7.988788 v -6.551199 c 0,-5.646899 0.0548,-6.551199 0.39687,-6.551199 0.34269,0 0.39589,0.930184 0.38966,6.813021 l -0.007,6.813022 -15.66935,7.967049 C 152.66048,54.705364 114.03025,74.383296 75.433668,94.052224 36.837086,113.72115 5.0650897,129.88796 4.8292317,129.97847 c -0.3060366,0.11744 -0.4022078,0.0373 -0.335852,-0.27971 z m -0.039311,-8.32513 c 0,-0.34653 17.6583603,-9.45856 71.3703703,-36.828405 C 115.07814,64.542849 150.02137,46.74852 153.47605,45.00227 l 6.28124,-3.175 0.004,-6.548438 c 0.003,-5.675257 0.0571,-6.548438 0.40493,-6.548438 0.35014,0 0.39234,0.86616 0.33073,6.789511 l -0.0706,6.78951 -10.18646,5.20427 C 144.63693,50.376034 111.00177,67.514371 75.494691,85.598878 39.987609,103.68339 9.4778447,119.23452 7.6952146,120.15694 c -2.6138329,1.35254 -3.2411458,1.58802 -3.2411459,1.21669 z m 0.00556,-8.42397 c 0.00425,-0.36636 4.9537081,-2.997 21.1005203,-11.21494 11.60223,-5.904959 42.794104,-21.791853 69.315275,-35.304202 L 143.09573,41.862614 v -6.56611 c 0,-5.660153 0.0548,-6.56611 0.39688,-6.56611 0.34266,0 0.39603,0.930646 0.39069,6.813021 l -0.006,6.813022 -7.33601,3.740441 C 132.50631,48.15412 101.22542,64.092197 67.028025,81.514823 32.83063,98.937451 4.761647,113.24542 4.6525063,113.31031 c -0.1091406,0.0649 -0.1959372,-0.0974 -0.1928812,-0.36065 z m 0.037341,-8.44349 c 0.066635,-0.346 17.3434153,-9.269962 61.1400093,-31.580593 L 126.6841,41.82727 l 0.004,-6.548438 c 0.003,-5.642787 0.0586,-6.548438 0.40061,-6.548438 0.34273,0 0.3957,0.929567 0.38827,6.813021 l -0.009,6.813022 -48.330193,24.606251 C 0.75199701,106.87115 4.3943351,105.0391 4.4969663,104.50617 Z m -0.00359,-8.429532 C 4.557561,95.756146 20.894612,87.304007 57.238442,68.788446 l 52.652078,-26.823888 0.17218,-2.185311 c 0.0947,-1.201921 0.184,-4.179608 0.19844,-6.617082 0.0224,-3.773344 0.0859,-4.431771 0.4276,-4.431771 0.35014,0 0.39233,0.866155 0.33073,6.78946 l -0.0706,6.789459 -52.916668,26.972893 C 28.928026,84.117299 4.9546233,96.319415 4.757963,96.39802 4.5231882,96.491862 4.4323289,96.381483 4.4933797,96.076638 Z m -0.039311,-8.445474 c 0,-0.220162 17.7571103,-9.412891 44.5822903,-23.079936 l 44.58229,-22.714035 v -6.5534 c 0,-5.648855 0.05478,-6.553399 0.396875,-6.553399 0.342636,0 0.396171,0.931105 0.391732,6.813021 l -0.0051,6.813022 -44.807361,22.820314 C 24.950703,77.727923 4.712393,87.997065 4.6207296,87.997065 c -0.091663,0 -0.1666608,-0.164656 -0.1666609,-0.365901 z m 0,-8.331211 c 0,-0.316373 10.1310993,-5.59611 36.3732333,-18.955598 l 36.373235,-18.517085 0.007,-6.548438 c 0.006,-5.673772 0.06058,-6.548438 0.408315,-6.548438 0.350168,0 0.39234,0.86836 0.330729,6.810226 l -0.07061,6.810227 -28.70729,14.628249 C 2.3956609,80.813007 4.4540688,79.785479 4.4540687,79.299953 Z"/></g></g></svg>