<svg xmlns="http://www.w3.org/2000/svg" viewBox="0 0 42 51">
  <g fill="currentColor">
    <path d="M12.712 1.656C8.881 3.289 5.705 5.917 3.44 9.248-2.01 17.265-.853 28.22 5.995 35.356l14.887 15.515 14.886-15.157c5.418-5.517 7.565-13.455 5.396-20.641A21.454 21.454 0 0 0 37.92 8.59C32.192.765 21.627-2.14 12.712 1.656Zm21.98 9.297a17.455 17.455 0 0 1 2.642 5.275l.102.353c1.563 5.663-.195 11.924-4.522 16.33l-12 12.217L8.881 32.587c-5.564-5.799-6.5-14.666-2.133-21.09 1.837-2.7 4.41-4.83 7.532-6.161 7.204-3.068 15.782-.709 20.412 5.617Z"/>
    <path d="M21 11a9 9 0 1 0 .001 18.001A9 9 0 0 0 21 11Zm0 4a5 5 0 1 1-.001 10.001A5 5 0 0 1 21 15Z"/>
  </g>
</svg>
