<svg xmlns="http://www.w3.org/2000/svg" viewBox="0 0 33 33"><g fill="currentColor" fill-rule="evenodd"><path d="M16.424 0c9.055 0 16.422 7.366 16.422 16.423 0 9.055-7.367 16.422-16.422 16.422C7.367 32.845 0 25.478 0 16.423 0 7.366 7.367 0 16.424 0Zm0 3.59C9.346 3.59 3.59 9.346 3.59 16.422c0 7.076 5.756 12.832 12.834 12.832 7.076 0 12.832-5.756 12.832-12.832 0-7.076-5.756-12.834-12.832-12.834Z"/><path d="M17.845 16.443V9.56a1.392 1.392 0 1 0-2.784 0v7.326c0 .023.006.044.007.065-.019.379.113.763.402 1.052l5.181 5.18a1.391 1.391 0 1 0 1.967-1.967l-4.773-4.773Z"/></g></svg>