<?xml version="1.0" encoding="utf-8"?>
<svg version="1.1" xmlns:xlink="http://www.w3.org/1999/xlink" width="14px" height="14px" xmlns="http://www.w3.org/2000/svg">
  <g transform="matrix(1 0 0 1 -700 -248 )">
    <path d="M 14 7  C 14 3.133064516129032  10.866935483870968 0  7 0  C 3.133064516129032 0  0 3.133064516129032  0 7  C 0 10.866935483870968  3.133064516129032 14  7 14  C 10.866935483870968 14  14 10.866935483870968  14 7  Z M 12.64516129032258 7  C 12.64516129032258 10.118951612903226  10.118951612903226 12.64516129032258  7 12.64516129032258  C 3.881048387096774 12.64516129032258  1.3548387096774193 10.118951612903226  1.3548387096774193 7  C 1.3548387096774193 3.881048387096774  3.881048387096774 1.3548387096774193  7 1.3548387096774193  C 10.118951612903226 1.3548387096774193  12.64516129032258 3.881048387096774  12.64516129032258 7  Z M 9.218548387096776 9.625  C 9.108467741935486 9.774596774193549  8.896774193548389 9.808467741935484  8.744354838709677 9.698387096774194  L 6.347983870967742 7.956854838709679  C 6.260483870967742 7.891935483870968  6.209677419354839 7.790322580645162  6.209677419354839 7.6830645161290345  L 6.209677419354839 3.0483870967741935  C 6.209677419354839 2.8620967741935486  6.362096774193549 2.7096774193548385  6.548387096774193 2.7096774193548385  L 7.451612903225806 2.7096774193548385  C 7.637903225806452 2.7096774193548385  7.79032258064516 2.8620967741935486  7.79032258064516 3.0483870967741935  L 7.79032258064516 7.047983870967742  L 9.675806451612903 8.41975806451613  C 9.828225806451613 8.529838709677419  9.859274193548387 8.741532258064517  9.749193548387098 8.893951612903226  L 9.218548387096776 9.625  Z " fill-rule="nonzero" fill="#000000" stroke="none" transform="matrix(1 0 0 1 700 248 )" />
  </g>
</svg>