<?xml version="1.0" standalone="no"?>
<!DOCTYPE svg PUBLIC "-//W3C//DTD SVG 20010904//EN"
 "http://www.w3.org/TR/2001/REC-SVG-20010904/DTD/svg10.dtd">
<svg version="1.0" xmlns="http://www.w3.org/2000/svg"
 width="260.000000pt" height="260.000000pt" viewBox="0 0 260.000000 260.000000"
 preserveAspectRatio="xMidYMid meet">
<metadata>
Created by potrace 1.11, written by Peter Selinger 2001-2013
</metadata>
<g transform="translate(0.000000,260.000000) scale(0.100000,-0.100000)"
fill="#000000" stroke="none">
<path d="M1100 1864 c-102 -53 -354 -181 -560 -286 -206 -105 -411 -210 -455
-232 l-80 -41 -3 -333 -2 -333 302 154 c610 310 845 430 921 469 l77 40 0 329
c0 181 -3 329 -7 329 -5 -1 -91 -44 -193 -96z"/>
<path d="M2435 1881 c-82 -43 -341 -175 -575 -294 -234 -119 -454 -231 -490
-250 l-65 -33 -3 -337 -2 -337 33 23 c18 12 76 42 128 67 52 25 96 47 99 50 3
3 111 59 240 124 129 65 361 183 515 262 l280 142 3 331 c1 182 -1 331 -5 331
-5 -1 -75 -36 -158 -79z"/>
</g>
</svg>
