<?xml version="1.0" encoding="utf-8"?>
<svg version="1.1" xmlns:xlink="http://www.w3.org/1999/xlink" width="14px" height="19px" xmlns="http://www.w3.org/2000/svg">
  <defs>
    <mask fill="white" id="clip8">
      <path d="M 7.719395833333333 18.58037037037037  C 7.371765625 19.090518518518515  6.628197916666666 19.090481481481483  6.2806041666666665 18.58037037037037  C 0.98328125 10.778925925925927  0 9.978259259259259  0 7.111111111111111  C 0 3.1837407407407405  3.133994791666667 0  7 0  C 10.866005208333334 0  14 3.1837407407407405  14 7.111111111111111  C 14 9.978259259259259  13.016718749999999 10.778925925925927  7.719395833333333 18.58037037037037  Z M 4.083333333333334 7.111111111111111  C 4.083333333333334 8.747518518518518  5.389161458333334 10.074074074074073  7 10.074074074074073  C 8.610838541666666 10.074074074074073  9.916666666666668 8.747518518518518  9.916666666666668 7.111111111111111  C 9.916666666666668 5.474703703703704  8.610838541666666 4.148148148148148  7 4.148148148148148  C 5.389161458333334 4.148148148148148  4.083333333333334 5.474703703703704  4.083333333333334 7.111111111111111  Z " fill-rule="evenodd" />
    </mask>
  </defs>
  <g transform="matrix(1 0 0 1 -700 -211 )">
    <path d="M 7.719395833333333 18.58037037037037  C 7.371765625 19.090518518518515  6.628197916666666 19.090481481481483  6.2806041666666665 18.58037037037037  C 0.98328125 10.778925925925927  0 9.978259259259259  0 7.111111111111111  C 0 3.1837407407407405  3.133994791666667 0  7 0  C 10.866005208333334 0  14 3.1837407407407405  14 7.111111111111111  C 14 9.978259259259259  13.016718749999999 10.778925925925927  7.719395833333333 18.58037037037037  Z M 4.083333333333334 7.111111111111111  C 4.083333333333334 8.747518518518518  5.389161458333334 10.074074074074073  7 10.074074074074073  C 8.610838541666666 10.074074074074073  9.916666666666668 8.747518518518518  9.916666666666668 7.111111111111111  C 9.916666666666668 5.474703703703704  8.610838541666666 4.148148148148148  7 4.148148148148148  C 5.389161458333334 4.148148148148148  4.083333333333334 5.474703703703704  4.083333333333334 7.111111111111111  Z " fill-rule="nonzero" fill="#000000" stroke="none" fill-opacity="0" transform="matrix(1 0 0 1 700 211 )" />
    <path d="M 7.719395833333333 18.58037037037037  C 7.371765625 19.090518518518515  6.628197916666666 19.090481481481483  6.2806041666666665 18.58037037037037  C 0.98328125 10.778925925925927  0 9.978259259259259  0 7.111111111111111  C 0 3.1837407407407405  3.133994791666667 0  7 0  C 10.866005208333334 0  14 3.1837407407407405  14 7.111111111111111  C 14 9.978259259259259  13.016718749999999 10.778925925925927  7.719395833333333 18.58037037037037  Z " stroke-width="2" stroke="#000000" fill="none" transform="matrix(1 0 0 1 700 211 )" mask="url(#clip8)" />
    <path d="M 4.083333333333334 7.111111111111111  C 4.083333333333334 8.747518518518518  5.389161458333334 10.074074074074073  7 10.074074074074073  C 8.610838541666666 10.074074074074073  9.916666666666668 8.747518518518518  9.916666666666668 7.111111111111111  C 9.916666666666668 5.474703703703704  8.610838541666666 4.148148148148148  7 4.148148148148148  C 5.389161458333334 4.148148148148148  4.083333333333334 5.474703703703704  4.083333333333334 7.111111111111111  Z " stroke-width="2" stroke="#000000" fill="none" transform="matrix(1 0 0 1 700 211 )" mask="url(#clip8)" />
  </g>
</svg>